<svg id="Group_3441" data-name="Group 3441" xmlns="http://www.w3.org/2000/svg" xmlns:xlink="http://www.w3.org/1999/xlink" width="120" height="50.34" viewBox="0 0 120 50.34">
  <defs>
    <clipPath id="clip-path">
      <rect id="Rectangle_4528" data-name="Rectangle 4528" width="120" height="50.34" fill="none"/>
    </clipPath>
  </defs>
  <g id="Group_3440" data-name="Group 3440" clip-path="url(#clip-path)">
    <path id="Path_4254" data-name="Path 4254" d="M.04,138.083l-.04,0V137.2a.037.037,0,0,0,.042,0l0,.882" transform="translate(0 -102.142)" fill="#fff"/>
    <path id="Path_4255" data-name="Path 4255" d="M.156,129.972q0-.441,0-.882A3.23,3.23,0,0,1,3.3,126.311c.222,0,.444,0,.667,0h115.83a.849.849,0,0,1,.322.021v6.421H3.817a3.2,3.2,0,0,0-.476-6.371v6.356a3.185,3.185,0,0,1-3.185-2.766m16.089.118c-.068-.042-.067-.1-.081-.15-.287-.99-.578-1.98-.859-2.972-.039-.136-.09-.185-.232-.178a6.5,6.5,0,0,1-.712,0c-.136-.008-.185.041-.215.166-.15.624-.308,1.246-.464,1.869-.106.423-.215.845-.331,1.3-.024-.056-.031-.07-.035-.084q-.457-1.537-.913-3.075c-.022-.074-.009-.177-.135-.176-.279,0-.558,0-.831,0-.007.035-.011.043-.009.05q.681,2.09,1.36,4.181c.034.106.093.119.185.117.253,0,.506-.01.758,0,.141.007.2-.037.232-.177.052-.255.121-.505.184-.757l.575-2.293c.035.1.054.151.068.2.264.941.529,1.882.787,2.825.04.148.1.214.263.2a5.215,5.215,0,0,1,.712,0c.156.01.212-.057.251-.193.128-.447.267-.892.4-1.338l.854-2.82c-.24,0-.462.013-.683,0-.174-.013-.247.037-.293.215-.269,1.027-.555,2.05-.837,3.085m32.542-3.284c-.894,0-1.767-.033-2.637.01-.805.04-1.16.39-1.217,1.13-.06.773.222,1.3,1.067,1.395.428.049.858.01,1.286.022a1.572,1.572,0,0,1,.455.042.439.439,0,0,1,.325.49.407.407,0,0,1-.353.44,1.665,1.665,0,0,1-.341.038c-.559,0-1.119,0-1.678,0-.617,0-.615,0-.589.616,0,.1.018.155.136.153.881-.016,1.763.033,2.643-.027a1.055,1.055,0,0,0,1.055-.767,1.876,1.876,0,0,0-.014-1.064.839.839,0,0,0-.656-.6,4.313,4.313,0,0,0-.892-.055,8,8,0,0,1-1.124-.029.425.425,0,0,1-.393-.411.517.517,0,0,1,.316-.556,1.105,1.105,0,0,1,.429-.062c.667,0,1.333,0,2,0,.133,0,.2-.019.186-.172-.014-.19,0-.383,0-.593m27.659,0c0,.968,0,1.918,0,2.868,0,.091.011.183.018.275a1.138,1.138,0,0,0,.89,1.115,3.343,3.343,0,0,0,1.522.077,1.3,1.3,0,0,0,1.276-1.5c.014-.9,0-1.793,0-2.689,0-.05.021-.107-.025-.151h-.856c0,.829,0,1.647,0,2.465a3.029,3.029,0,0,1-.034.526c-.082.465-.254.651-.715.692-.964.085-1.223-.285-1.208-1.053.016-.873,0-1.746,0-2.63Zm42.018,3.661c-.265,0-.494.009-.723,0-.393-.019-.516-.148-.519-.543,0-.582,0-1.164,0-1.747,0-.072.029-.153-.038-.223-.2,0-.395.006-.593,0-.116,0-.161.024-.16.15.006.682-.008,1.364.009,2.045a.9.9,0,0,0,.958.975c.349.021.7,0,1.05,0,0,.342-.115.486-.405.506s-.6.013-.9.016c-.218,0-.435,0-.646,0v.627c.6,0,1.178.011,1.759,0a.967.967,0,0,0,.994-.89,6.217,6.217,0,0,0,.029-.963c0-.758,0-1.517,0-2.275,0-.082.042-.2-.116-.192-.228,0-.456,0-.7,0Zm-96.428-1.249c-.043,0-.088.006-.133.006-.413,0-.827-.008-1.24.011a.923.923,0,0,0-.813.389.96.96,0,0,0,.782,1.512c.7.02,1.408,0,2.113.006.111,0,.166-.021.165-.149-.005-.658.013-1.317-.007-1.975a.948.948,0,0,0-.958-1.042c-.478-.047-.963-.022-1.445-.025-.58,0-.58,0-.563.589,0,.013.012.026.027.055.09,0,.188,0,.286,0a12.316,12.316,0,0,1,1.353.028c.356.05.477.217.435.593m85.2-.622c0-.193,0-.353,0-.513,0-.1-.032-.134-.132-.133-.613,0-1.226-.022-1.837.01a.907.907,0,0,0-.921,1.093c.031.559.314.781.983.786a6.318,6.318,0,0,1,.986.025.307.307,0,0,1,0,.612,3.518,3.518,0,0,1-.412.019c-.5,0-.992,0-1.5,0v.645c.325,0,.645,0,.964,0,.436,0,.873.01,1.308-.019a.777.777,0,0,0,.686-.7.962.962,0,0,0-.305-1.057.913.913,0,0,0-.272-.115,2.712,2.712,0,0,0-.638-.059c-.23,0-.46.006-.689-.006a.272.272,0,0,1-.278-.279.255.255,0,0,1,.241-.283,1.989,1.989,0,0,1,.319-.029c.489,0,.978,0,1.493,0m-50.357-.644c-.553,0-1.081,0-1.609,0a2.618,2.618,0,0,0-.549.038.9.9,0,0,0-.705,1.091c.054.54.3.756.864.757.268,0,.537,0,.8,0a2.119,2.119,0,0,1,.318.033.276.276,0,0,1,.249.284.287.287,0,0,1-.245.314,1.436,1.436,0,0,1-.3.025c-.543,0-1.086,0-1.646,0,0,.173.008.326,0,.477-.008.129.031.171.165.17.659-.007,1.319,0,1.978,0a.716.716,0,0,0,.511-.17A1.162,1.162,0,0,0,57,129.76c-.1-.394-.423-.514-.789-.547-.137-.012-.275-.017-.413-.02-.222,0-.445,0-.667-.005a.271.271,0,0,1-.291-.265.257.257,0,0,1,.245-.3,2.055,2.055,0,0,1,.319-.026c.488,0,.975,0,1.467,0Zm10.305.008c0,.764-.017,1.507.006,2.249a.845.845,0,0,0,.794.891,17.823,17.823,0,0,0,2.034.044v-3.192c-.2,0-.384.013-.565,0s-.249.036-.244.234c.014.551.009,1.1,0,1.654,0,.2.09.472-.04.595s-.394.035-.6.033c-.443,0-.583-.15-.585-.6,0-.551,0-1.1,0-1.655a.4.4,0,0,0-.03-.248Zm-34.352,1.265c0-.392.117-.536.459-.6a5.58,5.58,0,0,1,.94-.03c.488-.005.482,0,.475-.48,0-.129-.037-.171-.168-.169-.4.008-.8-.006-1.2.005a1.327,1.327,0,0,0-1.37,1,2.231,2.231,0,0,0-.055.866,1.338,1.338,0,0,0,1.08,1.266,10.39,10.39,0,0,0,1.7.059v-.618a.478.478,0,0,0-.255-.029c-.383-.012-.766.023-1.148-.022-.344-.041-.487-.229-.445-.6h1.842v-.649Zm65.34-1.273c-.462,0-.9-.008-1.335,0a1.331,1.331,0,0,0-1.4,1.057,2.414,2.414,0,0,0-.056.639,1.4,1.4,0,0,0,1.176,1.456,12.427,12.427,0,0,0,1.611.035V130.5c-.094,0-.177,0-.26,0-.375-.009-.751.024-1.125-.02-.349-.041-.484-.211-.465-.594h1.846v-.666H96.314c-.01-.37.113-.532.448-.585a2.7,2.7,0,0,1,.388-.033c.336,0,.671,0,1.018,0Zm-12.875,3.186c0-.757.02-1.492-.007-2.225a.855.855,0,0,0-.874-.928c-.587-.075-1.178-.007-1.766-.037-.183-.009-.211.056-.209.219.008.766,0,1.532,0,2.3v.677c.213,0,.4-.013.592,0s.227-.056.225-.231c-.01-.689,0-1.379-.008-2.068,0-.152.041-.2.193-.191.206.015.414,0,.619.019.3.029.4.148.41.444,0,.168,0,.337,0,.505v1.515Zm-23.336-1.579c0-.337,0-.674,0-1.011,0-.19.081-.435-.033-.556s-.364-.019-.552-.041-.234.031-.23.22c.012.7,0,1.409.007,2.113,0,.132-.021.2-.173.187-.183-.014-.368.006-.551-.006-.36-.023-.5-.18-.5-.544,0-.452,0-.9,0-1.355,0-.671,0-.669-.681-.616-.1.008-.134.036-.133.134.007.7-.013,1.394.021,2.089a.882.882,0,0,0,.959.947c.573.028,1.148.012,1.722.025.151,0,.153-.074.152-.185,0-.467,0-.934,0-1.4m31.76-1.606c-.276,0-.506.005-.735,0a.175.175,0,0,0-.2.136c-.076.216-.171.425-.256.637-.2.493-.4.986-.611,1.519l-.048-.12q-.388-1-.777-2.007c-.028-.071-.031-.168-.155-.165-.263.006-.526,0-.816,0,.365.876.717,1.72,1.07,2.564.085.2.126.468.279.588s.429.018.649.04a.245.245,0,0,0,.288-.184c.23-.549.475-1.091.714-1.637l.6-1.372m-63.605.631v-.631c-.239,0-.461-.008-.682,0-.146.008-.2-.029-.195-.187.013-.319,0-.638,0-.962H28.41v1.15h-.552v.626h.511c.026.023.037.028.037.033,0,.5,0,.995.006,1.492a.908.908,0,0,0,1.024,1.034h.23c.475,0,.469,0,.467-.466,0-.139-.034-.2-.179-.18a1.3,1.3,0,0,1-.184,0c-.371,0-.5-.086-.516-.457-.027-.478-.007-.96-.007-1.457Zm82.648-1.782v1.151h-.429c-.061,0-.132-.01-.129.083a2.3,2.3,0,0,0,.026.556h.539c0,.093,0,.168,0,.244a13.424,13.424,0,0,0,.035,1.584.783.783,0,0,0,.734.7c.235.024.475,0,.711.024.189.016.249-.042.242-.237-.015-.4,0-.4-.409-.411-.316-.006-.414-.073-.458-.39a14.448,14.448,0,0,1-.029-1.526h.434c.48,0,.473,0,.461-.473,0-.142-.06-.162-.179-.158-.234.007-.468,0-.714,0V126.8Zm-10.319,2.47a3.3,3.3,0,0,0-.03-.754c-.052-.343-.182-.492-.525-.536-.533-.069-1.07-.014-1.6-.029-.106,0-.1.066-.1.137q0,1.458,0,2.916c0,.073,0,.139.1.137.233,0,.466,0,.71,0,0-.791,0-1.549,0-2.306,0-.324-.053-.283.3-.285.292,0,.33.032.364.318.015.133.017.267.024.4Zm-63.488,0a3.357,3.357,0,0,0-.034-.8.543.543,0,0,0-.522-.491c-.535-.052-1.071-.009-1.607-.024-.105,0-.1.068-.1.139q0,1.46,0,2.919c0,.079.012.133.109.132.235,0,.469,0,.718,0v-2.593c.2.018.4-.066.547.055.2.169.068.448.133.668ZM64.164,126.8v2.724q0,.723,0,1.446c0,.082-.022.175.115.172.242,0,.485,0,.724,0V126.8Zm-38.2.01h-.812v4.326h.812Zm84.352,1.141c-.248,0-.47,0-.691,0-.1,0-.153.019-.152.136,0,.971,0,1.942,0,2.913,0,.07-.007.142.1.142.249,0,.5,0,.743,0Zm-22.033.014h-.807v3.171h.807Zm-36.364,3.171v-.655q0-1.172,0-2.343c0-.081.043-.193-.118-.188-.235.007-.47,0-.71,0v3.185Zm58.4-4.332h-.83v.765h.83Zm-22.022.007h-.828v.748h.828ZM51.905,126.8h-.825v.761h.825Z" transform="translate(-0.116 -94.031)" fill="#fff"/>
    <path id="Path_4256" data-name="Path 4256" d="M56.035,16.264c.432-1.587.849-3.122,1.266-4.657Q58.669,6.57,60.038,1.532A1.858,1.858,0,0,1,61.986.052h6.853a1.862,1.862,0,0,1,1.93,1.419q1.457,4.642,2.911,9.285.845,2.693,1.692,5.386c.024.077.052.152.1.294.162-.538.306-1.009.445-1.481q1.318-4.456,2.635-8.912Q79.241,3.721,79.93,1.4A1.85,1.85,0,0,1,81.724.052h6.025A1.858,1.858,0,0,1,89.536,2.5q-1.288,3.937-2.589,7.87L82.228,24.711Q81.475,27,80.722,29.289A1.834,1.834,0,0,1,78.9,30.6H71.657A1.837,1.837,0,0,1,69.8,29.213q-1.723-5.677-3.452-11.351l-.8-2.625c-.152.553-.289,1.045-.423,1.538Q63.445,23,61.761,29.225a1.833,1.833,0,0,1-1.8,1.373q-3.622,0-7.244,0a1.829,1.829,0,0,1-1.772-1.25q-1.517-4.259-3.03-8.52-3.232-9.094-6.465-18.188a1.871,1.871,0,0,1,1.82-2.59h6.164a1.82,1.82,0,0,1,1.8,1.3q1.563,4.849,3.112,9.7.791,2.47,1.579,4.94c.023.072.053.141.1.271m19.46,3.261c-.294-.936-.572-1.818-.849-2.7Q72.274,9.272,69.9,1.719A.982.982,0,0,0,68.852.942H61.976a1,1,0,0,0-1.079.833q-2.265,8.349-4.531,16.7c-.083.3-.169.607-.27.967l-1.419-4.433Q52.544,8.342,50.409,1.679a.954.954,0,0,0-.964-.735q-3.128-.007-6.255,0a.937.937,0,0,0-.748.343,1.045,1.045,0,0,0-.13,1.1q2.777,7.794,5.547,15.59Q49.8,23.45,51.743,28.923a1.01,1.01,0,0,0,1.115.79h6.991a.988.988,0,0,0,1.078-.829q2.218-8.207,4.439-16.413a1.243,1.243,0,0,1,.149-.434l1.474,4.847,3.67,12.076a.978.978,0,0,0,1.023.753h7.175a.982.982,0,0,0,1.029-.746q.944-2.867,1.885-5.734,2.36-7.172,4.72-14.344,1.084-3.292,2.17-6.582a.984.984,0,0,0-1-1.364q-2.932,0-5.864,0a.986.986,0,0,0-1.032.772q-.274.936-.552,1.87-1.8,6.1-3.6,12.191c-.365,1.232-.733,2.463-1.115,3.749" transform="translate(-30.763 -0.039)" fill="#828487"/>
    <path id="Path_4257" data-name="Path 4257" d="M239.834,30.6h-8.509a1.854,1.854,0,0,1-1.929-1.922q0-2.265,0-4.53a1.878,1.878,0,0,1,1.968-1.965h15.247a7.156,7.156,0,0,0,2.024-.234.747.747,0,0,0,.663-.834,2.851,2.851,0,0,0-.068-.729.646.646,0,0,0-.446-.507,4.92,4.92,0,0,0-1.737-.276c-2.438,0-4.875,0-7.313,0a18.77,18.77,0,0,1-5.069-.6,8.932,8.932,0,0,1-4.129-2.335,8.127,8.127,0,0,1-2.143-4.366,12.938,12.938,0,0,1,.189-5.559A8.055,8.055,0,0,1,234.024.931a15.723,15.723,0,0,1,3.949-.8c.933-.08,1.866-.084,2.8-.084q7.554,0,15.109,0a1.853,1.853,0,0,1,1.932,1.941q0,2.277,0,4.553a1.858,1.858,0,0,1-1.931,1.923H240.889a5.785,5.785,0,0,0-1.7.225c-.89.272-1.152.722-1.089,1.728a.656.656,0,0,0,.38.562,2.908,2.908,0,0,0,1.371.332c2.928.009,5.857,0,8.785.015a20.852,20.852,0,0,1,3.905.355,8.339,8.339,0,0,1,3.719,1.593,7.59,7.59,0,0,1,2.611,4.246,13.919,13.919,0,0,1,.293,4.653,9.834,9.834,0,0,1-.995,3.631,7.775,7.775,0,0,1-3.9,3.58,14.021,14.021,0,0,1-4.186,1.069,27.965,27.965,0,0,1-3.281.141q-3.484-.007-6.968,0m-.091-.886q3.38,0,6.761,0a30.546,30.546,0,0,0,3.35-.13,13.7,13.7,0,0,0,3.763-.889,7,7,0,0,0,3.687-3.168,8.808,8.808,0,0,0,.978-3.559,12.556,12.556,0,0,0-.376-4.575,6.329,6.329,0,0,0-4.358-4.529,14.283,14.283,0,0,0-4.143-.61c-2.966-.033-5.933-.016-8.9-.024-.337,0-.674-.01-1.009-.042a3.644,3.644,0,0,1-1.465-.43,1.505,1.505,0,0,1-.809-1.159,4.074,4.074,0,0,1-.018-.551,2.108,2.108,0,0,1,1.518-2.141,6.294,6.294,0,0,1,2.168-.329h14.9a1,1,0,0,0,1.135-1.13V2.079A1,1,0,0,0,255.778.941q-7.347,0-14.694,0a32.684,32.684,0,0,0-3.4.12,13.975,13.975,0,0,0-3.681.834,7.065,7.065,0,0,0-4.463,4.736,11.658,11.658,0,0,0-.134,6.128,6.809,6.809,0,0,0,2.8,4.152,9.7,9.7,0,0,0,3.619,1.449,20.157,20.157,0,0,0,4,.347c2.414.012,4.829,0,7.243,0a6.027,6.027,0,0,1,1.944.295,1.583,1.583,0,0,1,1.126,1.349,4.332,4.332,0,0,1,.046.756,1.621,1.621,0,0,1-1.332,1.712,8.362,8.362,0,0,1-2.228.264q-7.634.011-15.269,0a.954.954,0,0,0-1.052,1.052c0,1.5.017,3.005-.008,4.507a1.035,1.035,0,0,0,1.078,1.071c2.79-.015,5.58-.006,8.37-.006" transform="translate(-169.871 -0.038)" fill="#828487"/>
    <path id="Path_4258" data-name="Path 4258" d="M383.154,11.09q0,4.012,0,8.025a15.691,15.691,0,0,1-.431,4.024,8.919,8.919,0,0,1-1.714,3.5,9.388,9.388,0,0,1-2.779,2.277,14.623,14.623,0,0,1-4.425,1.511c-.81.148-1.623.245-2.442.322a30.95,30.95,0,0,1-3.918.071,24.394,24.394,0,0,1-3.706-.4,15.268,15.268,0,0,1-3.951-1.247,9.923,9.923,0,0,1-2.124-1.381,8.057,8.057,0,0,1-1.821-2.173,9.238,9.238,0,0,1-.944-2.742,18.521,18.521,0,0,1-.29-2.348c-.038-.573-.035-1.146-.035-1.718,0-5.633.007-11.267-.01-16.9a1.919,1.919,0,0,1,1.907-1.9c1.916.016,3.832,0,5.748,0a1.86,1.86,0,0,1,1.913,1.909q0,8.646,0,17.291a6.405,6.405,0,0,0,.181,1.615,2.293,2.293,0,0,0,1.373,1.59,6.355,6.355,0,0,0,2.023.482,11.137,11.137,0,0,0,3.473-.167c.23-.052.455-.131.68-.205a2.2,2.2,0,0,0,1.39-1.771,10,10,0,0,0,.3-2.487q.013-8.036,0-16.073a2.422,2.422,0,0,1,.215-1.193,1.708,1.708,0,0,1,1.547-.985c2.023-.021,4.048-.037,6.07,0a1.79,1.79,0,0,1,1.76,1.683,3.279,3.279,0,0,1,.012.413q0,4.484,0,8.968m-.89-.112q0-4.484,0-8.968A1,1,0,0,0,381.3.91c-1.962-.015-3.924-.011-5.886,0a.939.939,0,0,0-.966.994c-.029,5.693.06,11.386-.046,17.079a8.246,8.246,0,0,1-.432,2.508,2.934,2.934,0,0,1-1.986,1.956,8.965,8.965,0,0,1-2.572.4,10.909,10.909,0,0,1-3.478-.375,3.334,3.334,0,0,1-2.5-2.473,8.172,8.172,0,0,1-.21-1.931q.006-8.565.01-17.131A1.02,1.02,0,0,0,362.175.9c-1.863.009-3.725,0-5.588,0a.98.98,0,0,0-1.123,1.122q0,7.726,0,15.452a32.622,32.622,0,0,0,.169,4.369,11.746,11.746,0,0,0,.48,2.166,6.859,6.859,0,0,0,2.169,3.143,10.534,10.534,0,0,0,3.827,1.964,21.4,21.4,0,0,0,5.238.791,32.294,32.294,0,0,0,3.692-.04c.774-.059,1.543-.142,2.309-.271a13.642,13.642,0,0,0,4.685-1.6,8.354,8.354,0,0,0,2.293-1.924,8.218,8.218,0,0,0,1.563-3.269,15.063,15.063,0,0,0,.375-3.687q0-4.07,0-8.14" transform="translate(-263.964 0)" fill="#828487"/>
    <path id="Path_4259" data-name="Path 4259" d="M3.362,46.823A3.212,3.212,0,1,1,.151,50a3.206,3.206,0,0,1,3.211-3.181" transform="translate(-0.112 -34.858)" fill="#fff"/>
    <path id="Path_4260" data-name="Path 4260" d="M3.346,92.427A3.212,3.212,0,0,1,3.338,86a3.212,3.212,0,0,1,.007,6.424" transform="translate(-0.112 -64.027)" fill="#fff"/>
    <path id="Path_4261" data-name="Path 4261" d="M3.333,7.7A3.2,3.2,0,1,1,.15,10.883,3.193,3.193,0,0,1,3.333,7.7" transform="translate(-0.112 -5.735)" fill="#fff"/>
    <path id="Path_4262" data-name="Path 4262" d="M116.067,176v2.307h-1.041c-.067,0-.1-.028-.1-.1s0-.107,0-.161V172c.282,0,.592,0,.9,0,.093,0,.076.078.08.135.012.159.024.318.036.475.028.005.05.014.053.009a1.755,1.755,0,0,1,1.851-.686,1.775,1.775,0,0,1,1.419,1.405,2.709,2.709,0,0,1-.5,2.632,1.9,1.9,0,0,1-2.227.432,1.95,1.95,0,0,1-.478-.4m-.014-1.742c.013.183.016.367.041.548a1.019,1.019,0,0,0,.795.872,1.007,1.007,0,0,0,1.135-.536,1.962,1.962,0,0,0,.026-1.746.984.984,0,0,0-.971-.6,1.054,1.054,0,0,0-.93.735,2.315,2.315,0,0,0-.1.726" transform="translate(-85.562 -127.967)" fill="#fff"/>
    <path id="Path_4263" data-name="Path 4263" d="M237.532,174.167a2.19,2.19,0,0,1-1.652,2.3,2.24,2.24,0,0,1-2.873-2.582,2.055,2.055,0,0,1,1.313-1.837,2.34,2.34,0,0,1,2.429.29,2.168,2.168,0,0,1,.784,1.829m-2.269-1.474a.911.911,0,0,0-.826.47,1.992,1.992,0,0,0-.023,2.035.937.937,0,0,0,1.689,0,1.987,1.987,0,0,0-.012-2.035.889.889,0,0,0-.827-.469" transform="translate(-173.452 -127.929)" fill="#fff"/>
    <path id="Path_4264" data-name="Path 4264" d="M384.274,176.461h-1.142c0-.792,0-1.573,0-2.353a2.949,2.949,0,0,0-.04-.549.8.8,0,0,0-.792-.744.931.931,0,0,0-.919.748,2.976,2.976,0,0,0-.035.5c0,.72,0,1.441,0,2.161v.234H380.2V172h.971l.051.583c.079.026.087-.037.111-.066a1.7,1.7,0,0,1,1.881-.547,1.547,1.547,0,0,1,1.022,1.374,13.668,13.668,0,0,1,.039,1.745c.007.451,0,.9,0,1.372" transform="translate(-283.046 -127.957)" fill="#fff"/>
    <path id="Path_4265" data-name="Path 4265" d="M188.287,176.832c-.316,0-.6,0-.881,0-.1,0-.135-.034-.139-.131-.006-.16-.023-.32-.035-.474-.064-.027-.075.023-.094.048a1.7,1.7,0,0,1-1.846.593,1.5,1.5,0,0,1-1.054-1.439c-.07-1.016-.012-2.035-.032-3.067h1.137c0,.764,0,1.52,0,2.277a2.85,2.85,0,0,0,.065.683.757.757,0,0,0,.791.681.951.951,0,0,0,.88-.743,1.841,1.841,0,0,0,.025-.342c0-.849,0-1.7,0-2.559h1.13c.019,1.481-.026,2.964.05,4.472" transform="translate(-137.133 -128.317)" fill="#fff"/>
    <path id="Path_4266" data-name="Path 4266" d="M86.9,172h.957l.067.653a1.644,1.644,0,0,1,.956-.7,1.572,1.572,0,0,1,2.058,1.435c.031.2.033,2.865,0,3.081H89.846c-.059-.071-.031-.15-.031-.223,0-.766,0-1.532,0-2.3a2.312,2.312,0,0,0-.015-.321.816.816,0,0,0-.879-.806.936.936,0,0,0-.864.91c-.013.712,0,1.425-.005,2.137a3.912,3.912,0,0,0,0,.413c.018.169-.053.206-.207.2-.252-.012-.506-.012-.758,0-.152.007-.192-.04-.191-.192.007-1.072,0-2.144,0-3.217V172" transform="translate(-64.692 -127.96)" fill="#fff"/>
    <path id="Path_4267" data-name="Path 4267" d="M135.9,172.345h1.15c0,.8,0,1.6,0,2.393a2.535,2.535,0,0,0,.041.5c.1.52.4.789.849.752a.947.947,0,0,0,.857-.921c0-.828,0-1.655,0-2.483v-.239h1.144c.026,1.482-.026,2.965.035,4.459h-1c-.02-.2-.039-.4-.059-.613-.1.029-.126.123-.181.184a1.681,1.681,0,0,1-2.282.191,1.848,1.848,0,0,1-.545-1.3,4.125,4.125,0,0,1-.014-.413c0-.834,0-1.667,0-2.513" transform="translate(-101.173 -128.306)" fill="#fff"/>
    <path id="Path_4268" data-name="Path 4268" d="M273.288,174.562a1.087,1.087,0,0,0,.817,1.064,2.984,2.984,0,0,0,1.606-.06c.056-.015.111-.035.189-.06.053.249.1.479.152.708.021.091-.038.105-.095.123a3.69,3.69,0,0,1-2.558.023,1.772,1.772,0,0,1-1.038-1.073,2.709,2.709,0,0,1,.267-2.5,2.126,2.126,0,0,1,2.607-.722,1.86,1.86,0,0,1,1.022,1.411,3.7,3.7,0,0,1,.051.891c0,.161-.068.2-.223.2-.85-.007-1.7,0-2.55,0h-.248m1.945-.824c-.032-.669-.344-1.045-.872-1.062a1.054,1.054,0,0,0-1.068,1.062Z" transform="translate(-202.624 -127.963)" fill="#fff"/>
    <path id="Path_4269" data-name="Path 4269" d="M419.241,175.52l.166.78a4.187,4.187,0,0,1-1.91.26,1.991,1.991,0,0,1-1.924-1.722,2.573,2.573,0,0,1,.684-2.393,2.039,2.039,0,0,1,3.066.306,2.953,2.953,0,0,1,.316,1.689c-.01.163-.12.128-.213.128h-2.778a1.085,1.085,0,0,0,1.007,1.114,3.622,3.622,0,0,0,1.586-.163m-.674-1.773c.007-.64-.344-1.056-.89-1.063a1.034,1.034,0,0,0-1.03,1.063Z" transform="translate(-309.341 -127.97)" fill="#fff"/>
    <path id="Path_4270" data-name="Path 4270" d="M361.643,174.529a1.1,1.1,0,0,0,1.018,1.114,3.551,3.551,0,0,0,1.581-.165c.051.233.1.462.151.69.016.074-.011.11-.083.132a3.588,3.588,0,0,1-2.62,0,1.9,1.9,0,0,1-1.129-1.589,2.506,2.506,0,0,1,.752-2.344,2.04,2.04,0,0,1,2.169-.369,1.839,1.839,0,0,1,1.146,1.639,3,3,0,0,1,.021.686c-.013.159-.058.215-.232.213-.85-.011-1.7-.005-2.55-.005Zm0-.823h1.916a.912.912,0,0,0-.8-1.059,1.046,1.046,0,0,0-1.111,1.059" transform="translate(-268.401 -127.93)" fill="#fff"/>
    <path id="Path_4271" data-name="Path 4271" d="M324.542,174.534a1.1,1.1,0,0,0,1.016,1.114,3.537,3.537,0,0,0,1.581-.165c.051.233.1.461.152.689.022.094-.033.12-.1.142a3.83,3.83,0,0,1-2.367.088,1.885,1.885,0,0,1-1.264-1.262,2.668,2.668,0,0,1,.651-2.77,2.07,2.07,0,0,1,2.171-.368,1.839,1.839,0,0,1,1.147,1.638,3.2,3.2,0,0,1,.024.663c-.012.179-.064.24-.257.237-.842-.013-1.685-.006-2.527-.006h-.225m0-.823h1.915a.913.913,0,0,0-.806-1.059,1.047,1.047,0,0,0-1.109,1.059" transform="translate(-240.775 -127.935)" fill="#fff"/>
    <path id="Path_4272" data-name="Path 4272" d="M293.858,176.781c-.4,0-.763-.005-1.122,0a.255.255,0,0,1-.256-.143c-.285-.479-.6-.942-.86-1.47a10.252,10.252,0,0,0-.612,1.075.781.781,0,0,1-.949.541,4.178,4.178,0,0,0-.632-.005c.091-.14.162-.252.237-.362.4-.588.8-1.178,1.205-1.761a.231.231,0,0,0,0-.318c-.462-.664-.914-1.337-1.394-2.043.425,0,.818,0,1.211,0,.1,0,.119.086.156.146.284.452.564.907.852,1.371.26-.445.523-.878.767-1.322a.337.337,0,0,1,.359-.2c.321.015.642,0,.962,0,.036.083-.032.118-.063.163-.421.611-.841,1.223-1.273,1.826a.246.246,0,0,0,0,.337c.439.654.867,1.315,1.3,1.974.032.05.061.1.112.184" transform="translate(-215.469 -128.266)" fill="#fff"/>
    <path id="Path_4273" data-name="Path 4273" d="M252.6,166h.575a4.6,4.6,0,0,1,.082-.823,1.634,1.634,0,0,1,1.948-1.314c.516.08.432.009.392.517-.011.144-.029.287-.043.429-1.025-.075-1.275.166-1.22,1.188h.961v.853h-.963v3.624h-1.149v-3.614H252.6Z" transform="translate(-188.05 -121.974)" fill="#fff"/>
    <path id="Path_4274" data-name="Path 4274" d="M212.9,169.434h-.631v-.843h.631c0-.3,0-.58,0-.861,0-.1.017-.169.133-.194.321-.069.639-.148.975-.226v1.273h1.085v.856c-.305,0-.61,0-.914,0-.106,0-.17.01-.168.146.01.643-.009,1.288.021,1.93s.257.8.894.693l.1-.019a5.537,5.537,0,0,1,.041.783c.008.081-.044.108-.108.121a2.557,2.557,0,0,1-1.16.016,1.121,1.121,0,0,1-.848-1.026,10.9,10.9,0,0,1-.044-1.515c-.005-.367,0-.734,0-1.132" transform="translate(-158.029 -124.557)" fill="#fff"/>
    <path id="Path_4275" data-name="Path 4275" d="M168.5,175.419a2.96,2.96,0,0,0,1.016.315,1.227,1.227,0,0,0,.52-.055.433.433,0,0,0,.326-.376.465.465,0,0,0-.206-.457,2.036,2.036,0,0,0-.516-.244,3.053,3.053,0,0,1-.714-.357,1.222,1.222,0,0,1,.01-2.026,2.334,2.334,0,0,1,2.26-.124c.065.024.1.052.071.135-.072.232-.131.468-.2.718a1.966,1.966,0,0,0-1.091-.24.49.49,0,0,0-.474.364.444.444,0,0,0,.3.508c.261.125.539.214.8.337a1.307,1.307,0,0,1,.821,1.58,1.274,1.274,0,0,1-.947.938,3.047,3.047,0,0,1-2.023-.1c-.134-.051-.2-.113-.138-.271.074-.206.12-.422.181-.646" transform="translate(-125.29 -127.949)" fill="#fff"/>
    <path id="Path_4276" data-name="Path 4276" d="M310.966,172.957c-.909-.3-1.566-.179-1.958.36a1.7,1.7,0,0,0-.01,1.819c.381.543,1.054.672,2,.373.049.254.1.506.147.757.014.068-.017.087-.072.116a2.857,2.857,0,0,1-2.867-.423,2.365,2.365,0,0,1-.519-2.454,2.127,2.127,0,0,1,1.737-1.546,3.083,3.083,0,0,1,1.564.076c.153.047.187.1.137.257-.067.21-.106.429-.161.665" transform="translate(-228.968 -127.968)" fill="#fff"/>
    <path id="Path_4277" data-name="Path 4277" d="M403.128,175.513c.048.256.09.5.14.733.021.1-.024.142-.106.166a3.036,3.036,0,0,1-2.365-.105,2.118,2.118,0,0,1-1.092-2.161,2.369,2.369,0,0,1,2.946-2.206,1.943,1.943,0,0,1,.644.183l-.2.836c-.773-.238-1.514-.315-2.023.474a1.63,1.63,0,0,0,.114,1.792,1.65,1.65,0,0,0,1.939.288" transform="translate(-297.565 -127.98)" fill="#fff"/>
    <path id="Path_4278" data-name="Path 4278" d="M352.476,164.244h1.032c.144,0,.1.11.1.183,0,.521,0,1.042,0,1.563,0,1.525,0,3.051,0,4.576,0,.181-.045.237-.227.228-.3-.015-.6,0-.91,0Z" transform="translate(-262.408 -122.275)" fill="#fff"/>
    <path id="Path_4279" data-name="Path 4279" d="M344.229,164.221v6.546c-.347,0-.69,0-1.033,0-.12,0-.107-.079-.107-.156q0-.379,0-.759c0-1.786.006-3.572-.007-5.357,0-.245.072-.295.293-.28.28.019.562,0,.853,0" transform="translate(-255.415 -122.253)" fill="#fff"/>
    <path id="Path_4280" data-name="Path 4280" d="M77.358,171.754V171.5c0-1.906,0-3.812,0-5.718,0-.187.041-.255.236-.24a4.8,4.8,0,0,0,.688,0c.17-.011.221.037.219.213-.011.7,0,1.393,0,2.09,0,1.232,0,2.465,0,3.7,0,.171-.04.226-.215.217-.3-.015-.6,0-.923,0" transform="translate(-57.588 -123.238)" fill="#fff"/>
    <path id="Path_4281" data-name="Path 4281" d="M158.988,173.011a1.071,1.071,0,0,0-1.378,1.133c-.008.773,0,1.546,0,2.335h-1.147v-4.455h.955q.024.386.05.788c.075-.017.07-.087.094-.135a1.3,1.3,0,0,1,1.276-.765c.094.008.157.017.154.139-.007.313,0,.626,0,.958" transform="translate(-116.481 -127.981)" fill="#fff"/>
    <path id="Path_4282" data-name="Path 4282" d="M204.876,172.342h1.1c.05.061.029.124.029.183,0,1.357,0,2.713.005,4.07,0,.18-.044.238-.227.228-.3-.015-.6,0-.91,0Z" transform="translate(-152.524 -128.303)" fill="#fff"/>
    <path id="Path_4283" data-name="Path 4283" d="M205.137,166.205a.608.608,0,0,1-.627-.622.633.633,0,0,1,.641-.619.619.619,0,0,1,.645.631.6.6,0,0,1-.66.609" transform="translate(-152.252 -122.811)" fill="#fff"/>
    <path id="Path_4284" data-name="Path 4284" d="M81.525,140.793c-.362,0-.706.005-1.049,0a.378.378,0,0,1-.4-.214.325.325,0,0,1,.317-.459c.372-.018.745,0,1.128,0Z" transform="translate(-59.596 -104.306)" fill="#fff"/>
    <path id="Path_4285" data-name="Path 4285" d="M48.576,7.331h.233q2.921,0,5.841,0c.157,0,.236.031.29.2q3.232,10.127,6.476,20.25c.012.037.029.072.037.109.014.062.024.116.109.12.1.005.1-.073.122-.135q.258-.939.511-1.88L66.814,8.982c.13-.479.27-.956.389-1.439.04-.162.1-.217.274-.216q3.312.01,6.623,0a.286.286,0,0,1,.334.238q1.092,3.524,2.2,7.042,2.1,6.689,4.2,13.378c.021.067.02.153.106.211.394-1.335.783-2.659,1.175-3.982q2.007-6.779,4.015-13.557c.31-1.048.624-2.094.93-3.143.038-.131.086-.186.232-.185q2.863.008,5.726,0c.037,0,.074,0,.14.009-.164.506-.319,1-.48,1.486q-2.869,8.715-5.739,17.43-1.268,3.851-2.529,7.706a.251.251,0,0,1-.29.2q-3.45-.008-6.9,0a.242.242,0,0,1-.283-.206q-2.97-9.791-5.951-19.579a.46.46,0,0,0-.023-.089c-.027-.048-.018-.124-.109-.124s-.1.073-.119.138c-.178.656-.359,1.312-.536,1.968q-2.247,8.3-4.493,16.593c-.1.376-.2.752-.3,1.13a.185.185,0,0,1-.214.17q-3.461-.008-6.922,0c-.191,0-.206-.114-.247-.23q-1.639-4.607-3.275-9.216-3.044-8.569-6.086-17.138l-.089-.252" transform="translate(-36.163 -5.455)" fill="#fff"/>
    <path id="Path_4286" data-name="Path 4286" d="M236.721,29.469h1.345q7.014,0,14.027,0a8.474,8.474,0,0,0,2.651-.354,2.53,2.53,0,0,0,1.857-2.456,4.6,4.6,0,0,0-.108-1.3,2.537,2.537,0,0,0-1.886-1.906,7.243,7.243,0,0,0-2.106-.295c-2.437-.006-4.875,0-7.312,0a16,16,0,0,1-5.006-.663,6.429,6.429,0,0,1-3.457-2.442A6.939,6.939,0,0,1,235.6,16.9a11.235,11.235,0,0,1,.276-4.439,6.268,6.268,0,0,1,4.392-4.419,14.14,14.14,0,0,1,4.4-.692c5.5-.02,11.006-.015,16.509-.026.187,0,.225.056.224.232-.007,1.4-.009,2.805,0,4.208,0,.217-.063.26-.267.26q-7.4-.008-14.809,0a7.2,7.2,0,0,0-2.5.394,3.087,3.087,0,0,0-2.142,2.861,2.779,2.779,0,0,0,2.388,3.156,6.2,6.2,0,0,0,1.57.178c2.828,0,5.657-.005,8.485,0a17.311,17.311,0,0,1,4.143.459,5.4,5.4,0,0,1,4.163,4.052,11.4,11.4,0,0,1,.025,5.948,5.89,5.89,0,0,1-3.6,4.074,12.535,12.535,0,0,1-3.57.879,29.547,29.547,0,0,1-3.349.132q-7.473,0-14.946.005c-.244,0-.281-.071-.28-.291.01-1.387.005-2.775.005-4.162Z" transform="translate(-175.325 -5.454)" fill="#fff"/>
    <path id="Path_4287" data-name="Path 4287" d="M367.7,7.326v.3q0,8.532,0,17.064a8.025,8.025,0,0,0,.243,2.046,4.214,4.214,0,0,0,2.878,3.017,9.736,9.736,0,0,0,3.043.5,12.815,12.815,0,0,0,3.4-.308,4.111,4.111,0,0,0,3.216-3.192,12.113,12.113,0,0,0,.365-3q.008-8.072,0-16.144V7.334h5.859c.053.064.027.143.027.216q0,8.681,0,17.363a12.3,12.3,0,0,1-.522,3.759,7,7,0,0,1-3.654,4.189,13.8,13.8,0,0,1-4.326,1.3,24.488,24.488,0,0,1-3.731.262,22.634,22.634,0,0,1-7.006-.9,10.033,10.033,0,0,1-2.556-1.222,6.273,6.273,0,0,1-2.721-4.092,16.418,16.418,0,0,1-.34-3.284q-.01-8.659-.008-17.317c0-.23.051-.291.286-.289,1.763.011,3.526.006,5.289.006Z" transform="translate(-269.401 -5.449)" fill="#fff"/>
  </g>
</svg>
